<svg xmlns="http://www.w3.org/2000/svg" width="140" height="24" viewBox="0 0 140 24"><defs><style>.a{fill:#352e1a;}</style></defs><path class="a" d="M1771.19,195.3c.351.809,1.105.919,1.782,1.167,2.065.756,4.149,1.457,6.19,2.287a25.856,25.856,0,0,1,3.2,1.7,6.636,6.636,0,0,1,1.269,1.021c2.672,2.629,2.869,5.869.42,8.714a36.68,36.68,0,0,1-3.572,3.406c-1.281,1.136-2.648,2.156-3.918,3.3a8.5,8.5,0,0,0-2.392,3.074,2.12,2.12,0,0,0,1.651,1.472c1,.353,2.052.557,3.053.92,2.066.75,4.16,1.443,6.157,2.379,3.318,1.556,4.382,4.79,2.779,8.373-.809,1.809-1.826,3.509-2.786,5.234a26.012,26.012,0,0,0-2.535,6.319,17.485,17.485,0,0,0-.558,4.7,11.2,11.2,0,0,1-.1,2.147,1.728,1.728,0,0,1-1.542,1.453,1.674,1.674,0,0,1-1.678-.914,6.02,6.02,0,0,1-.73-2.667,17.22,17.22,0,0,1,.434-4.93,33.525,33.525,0,0,1,3.475-8.926c.636-1.181,1.3-2.344,1.948-3.517a6.908,6.908,0,0,0,.386-.755c.526-1.306.3-2.05-.926-2.568a54.874,54.874,0,0,0-7.144-2.571,15.077,15.077,0,0,1-3.141-1.283,6.071,6.071,0,0,1-1.705-1.441,4.772,4.772,0,0,1-.64-5.581,12.757,12.757,0,0,1,1.883-2.763,44.054,44.054,0,0,1,3.437-3.253c1.13-1,2.334-1.89,3.466-2.883a17.955,17.955,0,0,0,1.869-1.926,1.239,1.239,0,0,0-.067-1.894,8.21,8.21,0,0,0-1.755-1.366,37.475,37.475,0,0,0-7.059-2.817,17.757,17.757,0,0,1-2.407-.983,5.975,5.975,0,0,1-1.461-1.086,4.875,4.875,0,0,1-.975-5.881,11.824,11.824,0,0,1,1.509-2.261,25.946,25.946,0,0,1,6.713-5.657c1.382-.848,2.8-1.623,4.169-2.5a12.6,12.6,0,0,0,2.071-1.648,1.842,1.842,0,0,0,.3-2.354,6.36,6.36,0,0,0-.959-1.366,16.155,16.155,0,0,0-3.469-2.852c-2.6-1.573-5.188-3.166-7.753-4.8a15.639,15.639,0,0,1-3.907-3.283,6.947,6.947,0,0,1-1.286-6.646,8.053,8.053,0,0,1,1.727-2.87,22.513,22.513,0,0,1,7.9-6.02c1.093-.512,2.207-.971,3.29-1.506a9.8,9.8,0,0,0,1.715-1.065,1.206,1.206,0,0,0,.245-1.862,31.343,31.343,0,0,0-2.229-2.441c-1.538-1.577-3.148-3.073-4.635-4.7-3.238-3.556-3.981-7.839-2.8-12.574a16.613,16.613,0,0,1,3.769-7.021,29.2,29.2,0,0,1,7.343-5.822,7.267,7.267,0,0,1,1.282-.572,1.888,1.888,0,0,1,2.551.931,2.058,2.058,0,0,1-1.058,2.664,30.576,30.576,0,0,0-6.394,5.062,13.55,13.55,0,0,0-3.645,6.322,8.58,8.58,0,0,0,1.5,7.472c1.413,1.609,2.957,3.08,4.446,4.608.865.887,1.775,1.725,2.589,2.664a7.94,7.94,0,0,1,1.232,1.942,5.579,5.579,0,0,1-.96,6.172,8.769,8.769,0,0,1-2.781,2.036c-1.327.647-2.675,1.24-4.011,1.866a18.619,18.619,0,0,0-5.6,4.016c-2.375,2.482-2.32,3.831.4,5.77,2.1,1.5,4.277,2.862,6.47,4.188a33.5,33.5,0,0,1,5.367,3.657,23.555,23.555,0,0,1,2.658,2.887,6.71,6.71,0,0,1,1.38,3.976,6.138,6.138,0,0,1-1.313,4.186,11.837,11.837,0,0,1-3.092,2.67c-1.375.861-2.786,1.654-4.173,2.491a23.877,23.877,0,0,0-5.854,4.763A2.741,2.741,0,0,0,1771.19,195.3Z" transform="translate(-112.98 1788.542) rotate(-90)"/></svg>